<svg width="48" height="41" viewBox="0 0 48 41" fill="none" xmlns="http://www.w3.org/2000/svg">
<path d="M0.705433 8.6V1.634H13.7194V41H5.94343V8.6H0.705433ZM23.5639 32.468C27.0199 29.588 29.7739 27.194 31.8259 25.286C33.8779 23.342 35.5879 21.326 36.9559 19.238C38.3239 17.15 39.0079 15.098 39.0079 13.082C39.0079 11.246 38.5759 9.806 37.7119 8.762C36.8479 7.718 35.5159 7.196 33.7159 7.196C31.9159 7.196 30.5299 7.808 29.5579 9.032C28.5859 10.22 28.0819 11.858 28.0459 13.946H20.7019C20.8459 9.626 22.1239 6.35 24.5359 4.118C26.9839 1.886 30.0799 0.769997 33.8239 0.769997C37.9279 0.769997 41.0779 1.868 43.2739 4.064C45.4699 6.224 46.5679 9.086 46.5679 12.65C46.5679 15.458 45.8119 18.14 44.2999 20.696C42.7879 23.252 41.0599 25.484 39.1159 27.392C37.1719 29.264 34.6339 31.532 31.5019 34.196H47.4319V40.46H20.7559V34.844L23.5639 32.468Z" fill="#D7B686"/>
</svg>
