<svg width="132" height="41" viewBox="0 0 132 41" fill="none" xmlns="http://www.w3.org/2000/svg">
<path d="M3.63058 32.468C7.08658 29.588 9.84058 27.194 11.8926 25.286C13.9446 23.342 15.6546 21.326 17.0226 19.238C18.3906 17.15 19.0746 15.098 19.0746 13.082C19.0746 11.246 18.6426 9.806 17.7786 8.762C16.9146 7.718 15.5826 7.196 13.7826 7.196C11.9826 7.196 10.5966 7.808 9.62458 9.032C8.65258 10.22 8.14858 11.858 8.11258 13.946H0.768578C0.912578 9.626 2.19058 6.35 4.60258 4.118C7.05058 1.886 10.1466 0.769997 13.8906 0.769997C17.9946 0.769997 21.1446 1.868 23.3406 4.064C25.5366 6.224 26.6346 9.086 26.6346 12.65C26.6346 15.458 25.8786 18.14 24.3666 20.696C22.8546 23.252 21.1266 25.484 19.1826 27.392C17.2386 29.264 14.7006 31.532 11.5686 34.196H27.4986V40.46H0.822578V34.844L3.63058 32.468ZM32.2624 20.804C32.2624 14.576 33.3784 9.698 35.6104 6.17C37.8784 2.642 41.6224 0.877998 46.8424 0.877998C52.0624 0.877998 55.7884 2.642 58.0204 6.17C60.2884 9.698 61.4224 14.576 61.4224 20.804C61.4224 27.068 60.2884 31.982 58.0204 35.546C55.7884 39.11 52.0624 40.892 46.8424 40.892C41.6224 40.892 37.8784 39.11 35.6104 35.546C33.3784 31.982 32.2624 27.068 32.2624 20.804ZM53.9704 20.804C53.9704 18.14 53.7904 15.908 53.4304 14.108C53.1064 12.272 52.4224 10.778 51.3784 9.626C50.3704 8.474 48.8584 7.898 46.8424 7.898C44.8264 7.898 43.2964 8.474 42.2524 9.626C41.2444 10.778 40.5604 12.272 40.2004 14.108C39.8764 15.908 39.7144 18.14 39.7144 20.804C39.7144 23.54 39.8764 25.844 40.2004 27.716C40.5244 29.552 41.2084 31.046 42.2524 32.198C43.2964 33.314 44.8264 33.872 46.8424 33.872C48.8584 33.872 50.3884 33.314 51.4324 32.198C52.4764 31.046 53.1604 29.552 53.4844 27.716C53.8084 25.844 53.9704 23.54 53.9704 20.804ZM67.1725 20.804C67.1725 14.576 68.2885 9.698 70.5205 6.17C72.7885 2.642 76.5325 0.877998 81.7525 0.877998C86.9725 0.877998 90.6985 2.642 92.9305 6.17C95.1985 9.698 96.3325 14.576 96.3325 20.804C96.3325 27.068 95.1985 31.982 92.9305 35.546C90.6985 39.11 86.9725 40.892 81.7525 40.892C76.5325 40.892 72.7885 39.11 70.5205 35.546C68.2885 31.982 67.1725 27.068 67.1725 20.804ZM88.8805 20.804C88.8805 18.14 88.7005 15.908 88.3405 14.108C88.0165 12.272 87.3325 10.778 86.2885 9.626C85.2805 8.474 83.7685 7.898 81.7525 7.898C79.7365 7.898 78.2065 8.474 77.1625 9.626C76.1545 10.778 75.4705 12.272 75.1105 14.108C74.7865 15.908 74.6245 18.14 74.6245 20.804C74.6245 23.54 74.7865 25.844 75.1105 27.716C75.4345 29.552 76.1185 31.046 77.1625 32.198C78.2065 33.314 79.7365 33.872 81.7525 33.872C83.7685 33.872 85.2985 33.314 86.3425 32.198C87.3865 31.046 88.0705 29.552 88.3945 27.716C88.7185 25.844 88.8805 23.54 88.8805 20.804ZM131.189 25.07H120.983V35.546H113.855V25.07H103.649V18.482H113.855V8.006H120.983V18.482H131.189V25.07Z" fill="#D7B686"/>
</svg>
