<svg width="98" height="41" viewBox="0 0 98 41" fill="none" xmlns="http://www.w3.org/2000/svg">
<path d="M25.2976 8.168H7.80159V17.402C8.55759 16.466 9.63759 15.71 11.0416 15.134C12.4456 14.522 13.9396 14.216 15.5236 14.216C18.4036 14.216 20.7616 14.846 22.5976 16.106C24.4336 17.366 25.7656 18.986 26.5936 20.966C27.4216 22.91 27.8356 24.998 27.8356 27.23C27.8356 31.37 26.6476 34.7 24.2716 37.22C21.9316 39.74 18.5836 41 14.2276 41C10.1236 41 6.84759 39.974 4.39959 37.922C1.95159 35.87 0.565586 33.188 0.241586 29.876H7.58559C7.90959 31.316 8.62959 32.468 9.74559 33.332C10.8976 34.196 12.3556 34.628 14.1196 34.628C16.2436 34.628 17.8456 33.962 18.9256 32.63C20.0056 31.298 20.5456 29.534 20.5456 27.338C20.5456 25.106 19.9876 23.414 18.8716 22.262C17.7916 21.074 16.1896 20.48 14.0656 20.48C12.5536 20.48 11.2936 20.858 10.2856 21.614C9.27759 22.37 8.55759 23.378 8.12559 24.638H0.889586V1.526H25.2976V8.168ZM33.5895 20.804C33.5895 14.576 34.7055 9.698 36.9375 6.17C39.2055 2.642 42.9495 0.877998 48.1695 0.877998C53.3895 0.877998 57.1155 2.642 59.3475 6.17C61.6155 9.698 62.7495 14.576 62.7495 20.804C62.7495 27.068 61.6155 31.982 59.3475 35.546C57.1155 39.11 53.3895 40.892 48.1695 40.892C42.9495 40.892 39.2055 39.11 36.9375 35.546C34.7055 31.982 33.5895 27.068 33.5895 20.804ZM55.2975 20.804C55.2975 18.14 55.1175 15.908 54.7575 14.108C54.4335 12.272 53.7495 10.778 52.7055 9.626C51.6975 8.474 50.1855 7.898 48.1695 7.898C46.1535 7.898 44.6235 8.474 43.5795 9.626C42.5715 10.778 41.8875 12.272 41.5275 14.108C41.2035 15.908 41.0415 18.14 41.0415 20.804C41.0415 23.54 41.2035 25.844 41.5275 27.716C41.8515 29.552 42.5355 31.046 43.5795 32.198C44.6235 33.314 46.1535 33.872 48.1695 33.872C50.1855 33.872 51.7155 33.314 52.7595 32.198C53.8035 31.046 54.4875 29.552 54.8115 27.716C55.1355 25.844 55.2975 23.54 55.2975 20.804ZM97.6057 25.07H87.3997V35.546H80.2717V25.07H70.0657V18.482H80.2717V8.006H87.3997V18.482H97.6057V25.07Z" fill="#D7B686"/>
</svg>
