<svg width="30" height="42" viewBox="0 0 30 42" fill="none" xmlns="http://www.w3.org/2000/svg">
<path d="M7.22039 20.156C3.62039 18.284 1.82039 15.386 1.82039 11.462C1.82039 9.518 2.30639 7.754 3.27839 6.17C4.28639 4.55 5.78039 3.272 7.76039 2.336C9.77639 1.364 12.2244 0.877998 15.1044 0.877998C17.9844 0.877998 20.4144 1.364 22.3944 2.336C24.4104 3.272 25.9044 4.55 26.8764 6.17C27.8844 7.754 28.3884 9.518 28.3884 11.462C28.3884 13.442 27.9024 15.188 26.9304 16.7C25.9584 18.176 24.6624 19.328 23.0424 20.156C25.0224 21.02 26.5704 22.28 27.6864 23.936C28.8024 25.592 29.3604 27.554 29.3604 29.822C29.3604 32.27 28.7304 34.412 27.4704 36.248C26.2464 38.048 24.5544 39.434 22.3944 40.406C20.2344 41.378 17.8044 41.864 15.1044 41.864C12.4044 41.864 9.97439 41.378 7.81439 40.406C5.69039 39.434 3.99839 38.048 2.73839 36.248C1.51439 34.412 0.902392 32.27 0.902392 29.822C0.902392 27.554 1.46039 25.592 2.57639 23.936C3.69239 22.244 5.24039 20.984 7.22039 20.156ZM21.0444 12.542C21.0444 10.778 20.5044 9.41 19.4244 8.438C18.3804 7.466 16.9404 6.98 15.1044 6.98C13.3044 6.98 11.8644 7.466 10.7844 8.438C9.74039 9.41 9.21839 10.796 9.21839 12.596C9.21839 14.216 9.75839 15.512 10.8384 16.484C11.9544 17.456 13.3764 17.942 15.1044 17.942C16.8324 17.942 18.2544 17.456 19.3704 16.484C20.4864 15.476 21.0444 14.162 21.0444 12.542ZM15.1044 23.45C13.0524 23.45 11.3784 23.972 10.0824 25.016C8.82239 26.06 8.19239 27.554 8.19239 29.498C8.19239 31.298 8.80439 32.774 10.0284 33.926C11.2884 35.042 12.9804 35.6 15.1044 35.6C17.2284 35.6 18.9024 35.024 20.1264 33.872C21.3504 32.72 21.9624 31.262 21.9624 29.498C21.9624 27.59 21.3324 26.114 20.0724 25.07C18.8124 23.99 17.1564 23.45 15.1044 23.45Z" fill="#D7B686"/>
</svg>
