<svg width="23" height="17" viewBox="0 0 23 17" fill="none" xmlns="http://www.w3.org/2000/svg">
<path fill-rule="evenodd" clip-rule="evenodd" d="M0.507812 1.14902C0.507812 1.52473 0.809464 1.82929 1.18157 1.82929H3.05853C3.4036 1.82929 3.69289 2.09254 3.72865 2.43906L5.02262 14.9774C5.12991 16.0171 5.99779 16.8068 7.033 16.8068H20.0059C20.378 16.8068 20.6796 16.5022 20.6796 16.1265C20.6796 15.7508 20.378 15.4462 20.0059 15.4462H7.033C6.68793 15.4462 6.39864 15.183 6.36288 14.8364L6.278 14.014L19.2952 12.7823C19.7034 12.7437 20.0467 12.4598 20.1612 12.0661L22.3697 4.47383C22.5558 3.83398 22.0758 3.19453 21.4095 3.19453H5.16143L5.06891 2.29807C4.96163 1.25846 4.09374 0.46875 3.05853 0.46875H1.18157C0.809464 0.46875 0.507812 0.773315 0.507812 1.14902Z" fill="white"/>
</svg>
