<svg width="14" height="14" viewBox="0 0 14 14" fill="none" xmlns="http://www.w3.org/2000/svg">
<path d="M3.72525 2.83V5.386H7.84725V7.762H3.72525V10.534H8.38725V13H0.64725V0.364H8.38725V2.83H3.72525ZM11.8255 13.144C11.2855 13.144 10.8415 12.988 10.4935 12.676C10.1575 12.352 9.98953 11.956 9.98953 11.488C9.98953 11.008 10.1575 10.606 10.4935 10.282C10.8415 9.958 11.2855 9.796 11.8255 9.796C12.3535 9.796 12.7855 9.958 13.1215 10.282C13.4695 10.606 13.6435 11.008 13.6435 11.488C13.6435 11.956 13.4695 12.352 13.1215 12.676C12.7855 12.988 12.3535 13.144 11.8255 13.144Z" fill="#C5C8C9"/>
</svg>
