<svg width="23" height="17" viewBox="0 0 23 17" fill="none" xmlns="http://www.w3.org/2000/svg">
<path fill-rule="evenodd" clip-rule="evenodd" d="M11.5914 0.726562C4.14793 0.726562 0.5625 8.16233 0.5625 8.52583C0.5625 8.88973 4.05217 16.3251 11.5914 16.3251C19.1305 16.3251 22.6201 8.88973 22.6201 8.52583C22.6201 8.16233 19.0347 0.726562 11.5914 0.726562ZM11.5914 12.78C9.3072 12.78 7.45551 10.8753 7.45551 8.52578C7.45551 6.17622 9.3072 4.27168 11.5914 4.27168C13.8754 4.27168 15.7271 6.17622 15.7271 8.52578C15.7271 10.8753 13.8754 12.78 11.5914 12.78ZM11.5914 6.39876C10.4491 6.39876 9.52341 7.35111 9.52341 8.52574C9.52341 9.70066 10.4491 10.6529 11.5914 10.6529C12.7333 10.6529 13.6592 9.70066 13.6592 8.52574C13.6592 7.35111 12.7333 6.39876 11.5914 6.39876Z" fill="#C4C4C4"/>
</svg>
