<svg width="18" height="14" viewBox="0 0 18 14" fill="none" xmlns="http://www.w3.org/2000/svg">
<path d="M11.5913 0.364V13H8.51325V7.798H3.72525V13H0.64725V0.364H3.72525V5.314H8.51325V0.364H11.5913ZM15.2533 13.144C14.7133 13.144 14.2693 12.988 13.9213 12.676C13.5853 12.352 13.4173 11.956 13.4173 11.488C13.4173 11.008 13.5853 10.606 13.9213 10.282C14.2693 9.958 14.7133 9.796 15.2533 9.796C15.7813 9.796 16.2133 9.958 16.5493 10.282C16.8973 10.606 17.0713 11.008 17.0713 11.488C17.0713 11.956 16.8973 12.352 16.5493 12.676C16.2133 12.988 15.7813 13.144 15.2533 13.144Z" fill="#C5C8C9"/>
</svg>
