<svg width="15" height="19" viewBox="0 0 15 19" fill="none" xmlns="http://www.w3.org/2000/svg">
<path d="M1 1H7.50391H10.8462L12.1622 2.29588L12.9662 3.08755L14.0078 4.11319V18H1V1Z" stroke="#C3C6CD" stroke-width="2"/>
<path fill-rule="evenodd" clip-rule="evenodd" d="M3.67188 13.0164C3.67188 13.5438 4.10357 13.9714 4.6361 13.9714H10.3647C10.8972 13.9714 11.3289 13.5438 11.3289 13.0164C11.3289 12.4889 10.8972 12.0613 10.3647 12.0613H4.6361C4.10357 12.0613 3.67188 12.4889 3.67188 13.0164ZM3.67188 9.67377C3.67188 10.2012 4.10357 10.6288 4.6361 10.6288H10.3647C10.8972 10.6288 11.3289 10.2012 11.3289 9.67377C11.3289 9.14633 10.8972 8.71875 10.3647 8.71875H4.6361C4.10357 8.71875 3.67188 9.14633 3.67188 9.67377Z" fill="#6D778B"/>
</svg>
