<svg width="13" height="14" viewBox="0 0 13 14" fill="none" xmlns="http://www.w3.org/2000/svg">
<path d="M3.72525 10.624H7.75725V13H0.64725V0.364H3.72525V10.624ZM10.6654 13.144C10.1254 13.144 9.68138 12.988 9.33338 12.676C8.99738 12.352 8.82938 11.956 8.82938 11.488C8.82938 11.008 8.99738 10.606 9.33338 10.282C9.68138 9.958 10.1254 9.796 10.6654 9.796C11.1934 9.796 11.6254 9.958 11.9614 10.282C12.3094 10.606 12.4834 11.008 12.4834 11.488C12.4834 11.956 12.3094 12.352 11.9614 12.676C11.6254 12.988 11.1934 13.144 10.6654 13.144Z" fill="#C5C8C9"/>
</svg>
