<svg width="16" height="14" viewBox="0 0 16 14" fill="none" xmlns="http://www.w3.org/2000/svg">
<path d="M10.2773 4.432C10.2773 5.164 10.1093 5.836 9.77325 6.448C9.43725 7.048 8.92125 7.534 8.22525 7.906C7.52925 8.278 6.66525 8.464 5.63325 8.464H3.72525V13H0.64725V0.364H5.63325C6.64125 0.364 7.49325 0.538 8.18925 0.885999C8.88525 1.234 9.40725 1.714 9.75525 2.326C10.1033 2.938 10.2773 3.64 10.2773 4.432ZM5.39925 6.016C5.98725 6.016 6.42525 5.878 6.71325 5.602C7.00125 5.326 7.14525 4.936 7.14525 4.432C7.14525 3.928 7.00125 3.538 6.71325 3.262C6.42525 2.986 5.98725 2.848 5.39925 2.848H3.72525V6.016H5.39925ZM13.3197 13.144C12.7797 13.144 12.3357 12.988 11.9877 12.676C11.6517 12.352 11.4837 11.956 11.4837 11.488C11.4837 11.008 11.6517 10.606 11.9877 10.282C12.3357 9.958 12.7797 9.796 13.3197 9.796C13.8477 9.796 14.2797 9.958 14.6157 10.282C14.9637 10.606 15.1377 11.008 15.1377 11.488C15.1377 11.956 14.9637 12.352 14.6157 12.676C14.2797 12.988 13.8477 13.144 13.3197 13.144Z" fill="#C5C8C9"/>
</svg>
