<svg width="100" height="23" viewBox="0 0 100 23" fill="none" xmlns="http://www.w3.org/2000/svg">
<path d="M0.373253 0.163436H7.60469C10.1107 0.163436 11.9329 0.322514 13.0713 0.64067C14.2054 0.954468 15.0167 1.32928 15.5051 1.76511C16.5882 2.72394 17.1298 4.19487 17.1298 6.17789C17.1298 7.65972 16.3546 9.06527 14.8043 10.3945C16.7794 11.4187 17.7669 13.3255 17.7669 16.1148C17.7669 18.294 17.0725 19.9109 15.6835 20.9656C14.2903 22.0247 12.2133 22.6087 9.45238 22.7176H0.373253L0.0546875 20.0046C0.330778 19.6341 0.914815 19.2746 1.8068 18.9259V3.98785C0.936053 3.66097 0.352015 3.29052 0.0546875 2.87648L0.373253 0.163436ZM9.22938 12.9442H6.39414V19.1547H8.59225C10.0364 19.1547 11.1302 18.9368 11.8735 18.501C12.6168 18.0652 12.9885 17.2807 12.9885 16.1475C12.9885 15.0143 12.6975 14.1972 12.1156 13.696C11.5294 13.1948 10.5674 12.9442 9.22938 12.9442ZM8.05069 3.72635H6.39414V9.38124H9.00638C10.0895 9.38124 10.9178 9.09795 11.4912 8.53137C12.0646 7.9648 12.3513 7.27183 12.3513 6.45247C12.3513 5.63746 12.1496 5.02294 11.746 4.6089C11.3425 4.19486 10.8753 3.94426 10.3444 3.8571C9.81342 3.76993 9.04886 3.72635 8.05069 3.72635ZM36.626 14.5458C36.626 17.4005 35.9931 19.5187 34.7274 20.9002C33.4659 22.2862 31.4228 22.9791 28.5982 22.9791C25.7736 22.9791 23.7921 22.2971 22.6537 20.9329C21.5196 19.5731 20.9526 17.4441 20.9526 14.5458V3.98785C20.1456 3.68277 19.5615 3.31231 19.2005 2.87648L19.5191 0.163436H26.9735L27.2921 2.87648C26.9523 3.29052 26.3682 3.66097 25.5399 3.98785V14.6766C25.5399 16.2456 25.7884 17.4049 26.2854 18.1545C26.7866 18.9085 27.685 19.2855 28.9805 19.2855C30.276 19.2855 31.1892 18.8976 31.7201 18.1218C32.2511 17.3504 32.5165 16.202 32.5165 14.6766V3.98785C31.6458 3.66097 31.0617 3.29052 30.7644 2.87648L31.083 0.163436H38.0596L38.3781 2.87648C38.0383 3.29052 37.4543 3.66097 36.626 3.98785V14.5458ZM57.1417 6.76626C57.1417 8.24809 56.6893 9.4902 55.7846 10.4926C54.8841 11.495 53.7542 12.2577 52.395 12.7807C53.4569 13.2383 54.1578 13.794 54.4976 14.4478L56.8231 18.9913C57.8213 19.34 58.5009 19.7431 58.8619 20.2007L58.5434 22.7176H53.1596L49.4961 14.7093C49.1563 13.903 48.7613 13.4998 48.311 13.4998H46.2403V18.7298C47.7949 19.0785 48.7634 19.5034 49.1457 20.0046L48.8271 22.7176H40.2195L39.9009 20.0046C40.1812 19.6341 40.7653 19.2746 41.653 18.9259V3.98785C40.7822 3.66097 40.1982 3.29052 39.9009 2.87648L40.2195 0.163436H48.3493C51.3225 0.207019 53.5313 0.697328 54.9754 1.63436C56.4196 2.5714 57.1417 4.28203 57.1417 6.76626ZM48.1263 3.72635H46.2403V9.93693H48.0625C49.5025 9.93693 50.5792 9.71247 51.2928 9.26357C52.0064 8.81902 52.3632 8.01927 52.3632 6.86433C52.3632 5.70937 52.0021 4.89655 51.2801 4.42586C50.558 3.95952 49.5067 3.72635 48.1263 3.72635ZM66.9471 0H71.3115L77.6509 18.8605C78.5429 19.1874 79.1694 19.5688 79.5305 20.0046L79.2119 22.7176H71.7575L71.4389 20.0046C71.6937 19.6559 72.2034 19.3291 72.968 19.024L72.1079 16.2783H65.7366L64.9401 18.9259C65.6835 19.231 66.2356 19.5906 66.5967 20.0046L66.2781 22.7176H59.0148L58.6963 20.0046C59.0785 19.5034 59.79 19.0894 60.8307 18.7625L66.9471 0ZM69.1134 4.57622H68.6674C68.6674 5.9055 68.4019 7.4527 67.871 9.21781L66.6285 13.271H71.184L69.9735 9.28318C69.485 7.75778 69.2089 6.37402 69.1452 5.1319L69.1134 4.57622ZM99.6638 20.0046L99.3452 22.7176H94.0571L86.9849 10.9502L92.3049 3.69366C91.7103 3.41037 91.2962 3.11619 91.0625 2.8111L91.3811 0.163436H98.6444L98.963 2.8111C98.6656 3.15977 98.1135 3.50843 97.3064 3.8571L91.7952 10.8195L96.8286 18.5991C98.209 18.9041 99.1541 19.3727 99.6638 20.0046ZM80.7729 0.163436H88.2273L88.5459 2.87648C88.2061 3.29052 87.622 3.66097 86.7938 3.98785V18.9259C87.6433 19.2746 88.2273 19.6341 88.5459 20.0046L88.2273 22.7176H80.7729L80.4543 20.0046C80.7304 19.6341 81.3144 19.2746 82.2064 18.9259V3.98785C81.3357 3.66097 80.7516 3.29052 80.4543 2.87648L80.7729 0.163436Z" fill="#D7B586"/>
</svg>
