<svg width="18" height="16" viewBox="0 0 18 16" fill="none" xmlns="http://www.w3.org/2000/svg">
<path d="M8.6236 5.61432C7.04831 5.61432 5.76276 6.7255 5.76276 8.08711C5.76276 9.44873 7.04831 10.5599 8.6236 10.5599C10.1989 10.5599 11.4844 9.44873 11.4844 8.08711C11.4844 6.7255 10.1989 5.61432 8.6236 5.61432ZM17.204 8.08711C17.204 7.06312 17.2147 6.0484 17.1482 5.02626C17.0816 3.83902 16.7683 2.78534 15.7639 1.91717C14.7573 1.04715 13.5405 0.778165 12.1669 0.720658C10.9822 0.663151 9.80828 0.672427 8.62574 0.672427C7.44106 0.672427 6.2671 0.663151 5.08457 0.720658C3.71102 0.778165 2.492 1.049 1.48759 1.91717C0.481039 2.7872 0.169845 3.83902 0.103314 5.02626C0.0367825 6.05025 0.0475134 7.06497 0.0475134 8.08711C0.0475134 9.10925 0.0367825 10.1258 0.103314 11.148C0.169845 12.3352 0.483185 13.3889 1.48759 14.2571C2.49414 15.1271 3.71102 15.3961 5.08457 15.4536C6.26925 15.5111 7.4432 15.5018 8.62574 15.5018C9.81042 15.5018 10.9844 15.5111 12.1669 15.4536C13.5405 15.3961 14.7595 15.1252 15.7639 14.2571C16.7704 13.387 17.0816 12.3352 17.1482 11.148C17.2168 10.1258 17.204 9.11111 17.204 8.08711ZM8.6236 11.8918C6.1877 11.8918 4.22181 10.1926 4.22181 8.08711C4.22181 5.98162 6.1877 4.28238 8.6236 4.28238C11.0595 4.28238 13.0254 5.98162 13.0254 8.08711C13.0254 10.1926 11.0595 11.8918 8.6236 11.8918ZM13.2057 5.01513C12.6369 5.01513 12.1776 4.61815 12.1776 4.12655C12.1776 3.63496 12.6369 3.23798 13.2057 3.23798C13.7744 3.23798 14.2337 3.63496 14.2337 4.12655C14.2338 4.24328 14.2074 4.3589 14.1558 4.46677C14.1042 4.57464 14.0284 4.67266 13.933 4.7552C13.8375 4.83774 13.7241 4.90319 13.5993 4.94779C13.4745 4.99239 13.3407 5.01528 13.2057 5.01513Z" fill="#AAAAAA"/>
</svg>
