<svg width="18" height="13" viewBox="0 0 18 13" fill="none" xmlns="http://www.w3.org/2000/svg">
<path d="M17.0184 2.63594C16.9207 2.29949 16.7292 1.99267 16.4631 1.74618C16.1969 1.49969 15.8654 1.32218 15.5018 1.23141C14.1632 0.898438 8.79762 0.898438 8.79762 0.898438C8.79762 0.898438 3.432 0.898437 2.09346 1.22964C1.72967 1.32011 1.39801 1.49752 1.1318 1.74406C0.865587 1.99059 0.674194 2.29757 0.576841 2.63417C0.21875 3.87398 0.21875 6.45987 0.21875 6.45987C0.21875 6.45987 0.21875 9.04576 0.576841 10.2838C0.774078 10.9675 1.35622 11.5059 2.09346 11.6883C3.432 12.0213 8.79762 12.0213 8.79762 12.0213C8.79762 12.0213 14.1632 12.0213 15.5018 11.6883C16.2409 11.5059 16.8212 10.9675 17.0184 10.2838C17.3765 9.04576 17.3765 6.45987 17.3765 6.45987C17.3765 6.45987 17.3765 3.87398 17.0184 2.63594ZM7.09333 8.83322V4.08652L11.536 6.44216L7.09333 8.83322Z" fill="#AAAAAA"/>
</svg>
