<svg width="19" height="16" viewBox="0 0 19 16" fill="none" xmlns="http://www.w3.org/2000/svg">
<path d="M17.3386 0.671875H1.5535C1.17388 0.671875 0.867188 0.93697 0.867188 1.26509V14.9091C0.867188 15.2373 1.17388 15.5024 1.5535 15.5024H17.3386C17.7182 15.5024 18.0249 15.2373 18.0249 14.9091V1.26509C18.0249 0.93697 17.7182 0.671875 17.3386 0.671875ZM14.0636 6.04236C14.0701 6.12949 14.0701 6.22033 14.0701 6.30931C14.0701 9.0307 11.6723 12.1655 7.29061 12.1655C5.93944 12.1655 4.68693 11.8262 3.63173 11.2423C3.82475 11.2608 4.0092 11.2682 4.20651 11.2682C5.32176 11.2682 6.34694 10.942 7.16408 10.3895C6.11745 10.371 5.23812 9.77779 4.93786 8.96211C5.30461 9.00846 5.63489 9.00846 6.01236 8.92504C5.47345 8.8304 4.98906 8.57741 4.64149 8.20906C4.29392 7.84071 4.10461 7.37971 4.10571 6.90438V6.87843C4.42098 7.0323 4.79202 7.12684 5.18021 7.13982C4.85388 6.95183 4.58625 6.69715 4.40106 6.39835C4.21587 6.09955 4.11884 5.76587 4.11858 5.4269C4.11858 5.04316 4.23439 4.69279 4.44243 4.38876C5.0406 5.02524 5.78702 5.5458 6.63318 5.91661C7.47935 6.28741 8.40631 6.50017 9.35383 6.54104C9.01711 5.14141 10.2267 4.00873 11.6808 4.00873C12.3672 4.00873 12.9848 4.25714 13.4202 4.65757C13.9585 4.57044 14.4733 4.39618 14.9322 4.1626C14.7542 4.63903 14.381 5.0413 13.8856 5.29528C14.366 5.25078 14.8293 5.13585 15.2582 4.97457C14.9344 5.38611 14.529 5.75131 14.0636 6.04236Z" fill="#AAAAAA"/>
</svg>
