<svg width="18" height="16" viewBox="0 0 18 16" fill="none" xmlns="http://www.w3.org/2000/svg">
<path d="M17.1589 0.671875H1.37381C0.994194 0.671875 0.6875 0.93697 0.6875 1.26509V14.9091C0.6875 15.2373 0.994194 15.5024 1.37381 15.5024H17.1589C17.5385 15.5024 17.8452 15.2373 17.8452 14.9091V1.26509C17.8452 0.93697 17.5385 0.671875 17.1589 0.671875ZM15.1772 5.00052H13.8067C12.7322 5.00052 12.5242 5.44173 12.5242 6.09056V7.51985H15.0893L14.7547 9.75739H12.5242V15.5024H9.84973V9.75925H7.61279V7.51985H9.84973V5.86996C9.84973 3.95497 11.203 2.91128 13.1805 2.91128C14.1284 2.91128 14.9413 2.97245 15.1794 3.00026V5.00052H15.1772Z" fill="#AAAAAA"/>
</svg>
